<?xml version="1.0" encoding="UTF-8" standalone="no"?>
<!-- Created with Inkscape (http://www.inkscape.org/) -->

<svg
   xmlns:dc="http://purl.org/dc/elements/1.1/"
   xmlns:cc="http://creativecommons.org/ns#"
   xmlns:rdf="http://www.w3.org/1999/02/22-rdf-syntax-ns#"
   xmlns:svg="http://www.w3.org/2000/svg"
   xmlns="http://www.w3.org/2000/svg"
   xmlns:xlink="http://www.w3.org/1999/xlink"
   xmlns:sodipodi="http://sodipodi.sourceforge.net/DTD/sodipodi-0.dtd"
   xmlns:inkscape="http://www.inkscape.org/namespaces/inkscape"
   width="6.5cm"
   height="9cm"
   viewBox="0 0 65 89.999998"
   version="1.1"
   id="svg8"
   inkscape:version="0.92.5 (2060ec1f9f, 2020-04-08)"
   sodipodi:docname="Raketen-Quartet7.svg">
  <defs
     id="defs2">
    <clipPath
       clipPathUnits="userSpaceOnUse"
       id="clipPath6289">
      <rect
         style="fill:#ffffff;fill-opacity:1;stroke:#000000;stroke-width:0.95859778;stroke-miterlimit:4;stroke-dasharray:none;stroke-dashoffset:0;stroke-opacity:1"
         id="rect6291"
         width="62.611084"
         height="44.209045"
         x="1.348379"
         y="214.5594"
         ry="0.4254356" />
    </clipPath>
  </defs>
  <sodipodi:namedview
     id="base"
     pagecolor="#ffffff"
     bordercolor="#666666"
     borderopacity="1.0"
     inkscape:pageopacity="0.0"
     inkscape:pageshadow="2"
     inkscape:zoom="0.98994949"
     inkscape:cx="146.37049"
     inkscape:cy="175.64157"
     inkscape:document-units="mm"
     inkscape:current-layer="layer1"
     showgrid="false"
     units="cm"
     inkscape:window-width="1848"
     inkscape:window-height="1016"
     inkscape:window-x="72"
     inkscape:window-y="27"
     inkscape:window-maximized="1" />
  <metadata
     id="metadata5">
    <rdf:RDF>
      <cc:Work
         rdf:about="">
        <dc:format>image/svg+xml</dc:format>
        <dc:type
           rdf:resource="http://purl.org/dc/dcmitype/StillImage" />
        <dc:title></dc:title>
      </cc:Work>
    </rdf:RDF>
  </metadata>
  <g
     inkscape:label="Ebene 1"
     inkscape:groupmode="layer"
     id="layer1"
     transform="translate(0,-207.00002)">
    <text
       xml:space="preserve"
       style="font-style:normal;font-weight:normal;font-size:4.23333311px;line-height:1.25;font-family:sans-serif;letter-spacing:0px;word-spacing:0px;fill:#000000;fill-opacity:1;stroke:none;stroke-width:0.26458332"
       x="9.959671"
       y="255.12024"
       id="text3799"><tspan
         sodipodi:role="line"
         id="tspan3797"
         x="9.959671"
         y="258.86575"
         style="stroke-width:0.26458332" /><tspan
         sodipodi:role="line"
         x="9.959671"
         y="264.15741"
         style="stroke-width:0.26458332"
         id="tspan6588">Startmasse: 2 055 T</tspan><tspan
         sodipodi:role="line"
         x="9.959671"
         y="269.44907"
         style="stroke-width:0.26458332"
         id="tspan6756">Startschub: 25 760 kN</tspan><tspan
         sodipodi:role="line"
         x="9.959671"
         y="274.74075"
         style="stroke-width:0.26458332"
         id="tspan6758">Höhe: 56 m</tspan><tspan
         sodipodi:role="line"
         x="9.959671"
         y="280.03241"
         style="stroke-width:0.26458332"
         id="tspan6764">Nutzlastkap. LEO: 24,4 T</tspan><tspan
         sodipodi:role="line"
         x="9.959671"
         y="285.32407"
         style="stroke-width:0.26458332"
         id="tspan6776">Stufen: 2</tspan><tspan
         sodipodi:role="line"
         x="9.959671"
         y="290.61575"
         style="stroke-width:0.26458332"
         id="tspan6772">Erstflug: 12. April 1981</tspan></text>
    <text
       xml:space="preserve"
       style="font-style:normal;font-weight:normal;font-size:4.23333311px;line-height:1.25;font-family:sans-serif;letter-spacing:0px;word-spacing:0px;fill:#000000;fill-opacity:1;stroke:none;stroke-width:0.26458332"
       x="8.1691656"
       y="212.88139"
       id="text3819"><tspan
         sodipodi:role="line"
         id="tspan3817"
         x="8.1691656"
         y="212.88139"
         style="font-style:italic;font-variant:normal;font-weight:bold;font-stretch:normal;font-family:sans-serif;-inkscape-font-specification:'sans-serif Bold Italic';stroke-width:0.26458332">Space Shuttle (USA)</tspan></text>
    <g
       id="g3909"
       transform="matrix(0.10926139,0,0,0.10926139,1.7175414,258.43833)">
      <g
         id="color">
        <path
           id="path3880"
           d="m 43.2748,23.3423 h 5.948 a 4.0713,4.0713 0 0 1 4.0713,4.0714 V 52.0186 A 4.0713,4.0713 0 0 1 49.2228,56.09 H 22.2546 A 4.0714,4.0714 0 0 1 18.1832,52.0186 V 27.4137 a 4.0714,4.0714 0 0 1 4.0714,-4.0714 H 28.63"
           inkscape:connector-curvature="0"
           style="fill:#92d3f5;stroke:#000000;stroke-width:2;stroke-linecap:round;stroke-linejoin:round" />
        <circle
           id="circle3882"
           r="7.2786999"
           cy="23.2787"
           cx="36.062"
           style="fill:#ffffff" />
      </g>
      <g
         id="line">
        <path
           id="path3885"
           d="m 44.2748,23.3423 h 4.948 a 4.0713,4.0713 0 0 1 4.0713,4.0714 V 52.0186 A 4.0713,4.0713 0 0 1 49.2228,56.09 H 22.2546 A 4.0714,4.0714 0 0 1 18.1832,52.0186 V 27.4137 a 4.0714,4.0714 0 0 1 4.0714,-4.0714 H 28.63"
           inkscape:connector-curvature="0"
           style="fill:none;stroke:#000000;stroke-width:2;stroke-linecap:round;stroke-linejoin:round" />
        <circle
           id="circle3887"
           r="7.2786999"
           cy="23.2787"
           cx="36.062"
           style="fill:none;stroke:#000000;stroke-width:2;stroke-linecap:round;stroke-linejoin:round" />
        <path
           id="path3889"
           d="m 38.39,18.9441 a 0.6217,0.6217 0 0 0 -0.8339,0.2782 l -1.89,3.7816 a 1.1456,1.1456 0 0 0 -1.0146,0.8128 1.182,1.182 0 0 0 2.2691,0.659 1.1232,1.1232 0 0 0 -0.14,-0.9217 l 1.8872,-3.776 A 0.6217,0.6217 0 0 0 38.39,18.9441 Z"
           inkscape:connector-curvature="0" />
        <path
           id="path3891"
           d="m 46.1273,24.0481 a 8.14,8.14 0 0 1 0.1092,1.3315 c 0,5.019 -4.5886,9.0876 -10.2489,9.0876 -5.6603,0 -10.2489,-4.0686 -10.2489,-9.0872 a 8.1373,8.1373 0 0 1 0.1417,-1.5145"
           inkscape:connector-curvature="0"
           style="fill:none;stroke:#000000;stroke-width:2;stroke-linecap:round;stroke-linejoin:round" />
      </g>
    </g>
    <g
       id="g4176"
       transform="matrix(0.05935378,0,0,0.05935378,3.4856599,270.77698)">
      <g
         id="color-7">
        <polygon
           points="36.0015,66.9995 51.7651,50.2627 47.7305,46.5533 39.062,55.7613 39.062,16.2377 47.7305,25.4453 51.7651,21.7363 36.0015,4.9995 20.2349,21.7363 24.2681,25.4453 32.9331,16.2445 32.9331,55.7546 24.2681,46.5533 20.2349,50.2627 "
           stroke-miterlimit="10"
           id="_x2195__xFE0F_"
           style="fill:#3f3f3f;stroke:none;stroke-width:2;stroke-linecap:round;stroke-linejoin:round;stroke-miterlimit:10" />
      </g>
      <g
         id="hair-5" />
      <g
         id="skin-3" />
      <g
         id="skin-shadow-5" />
      <g
         id="line-62">
        <polygon
           points="36.0015,66.9995 51.7651,50.2627 47.7305,46.5533 39.062,55.7613 39.062,16.2377 47.7305,25.4453 51.7651,21.7363 36.0015,4.9995 20.2349,21.7363 24.2681,25.4453 32.9331,16.2445 32.9331,55.7546 24.2681,46.5533 20.2349,50.2627 "
           stroke-miterlimit="10"
           id="polygon4159"
           style="fill:none;stroke:#000000;stroke-width:2;stroke-linecap:round;stroke-linejoin:round;stroke-miterlimit:10" />
      </g>
    </g>
    <g
       id="g4316"
       transform="matrix(0.06666531,0,0,0.06666531,3.2177116,275.77751)">
      <g
         id="color-9">
        <path
           id="path4245"
           d="m 24.2814,24.4049 c 3.6326,-3.6326 3.934,-9.4125 0.8702,-13.3997 -0.3699,-0.4815 -1.0826,-0.53 -1.512,-0.1007 L 11.0003,23.5439 c -0.4196,0.4196 -0.3828,1.1114 0.0737,1.4905 3.8646,3.2097 9.5665,3.0113 13.2074,-0.6295 z"
           stroke-miterlimit="10"
           inkscape:connector-curvature="0"
           style="fill:#d0cfce;stroke:none;stroke-width:2;stroke-linecap:round;stroke-linejoin:round;stroke-miterlimit:10" />
        <path
           id="path4247"
           d="M 15.7278,67.7278 4.4142,56.4142 c -0.3906,-0.3906 -0.3906,-1.0237 0,-1.4143 L 19.5147,39.8994 c 0.3905,-0.3905 1.0236,-0.3905 1.4142,0 l 11.3137,11.3137 c 0.3905,0.3906 0.3905,1.0237 0,1.4142 L 17.1421,67.7278 c -0.3906,0.3906 -1.0237,0.3906 -1.4143,0 z"
           stroke-miterlimit="10"
           inkscape:connector-curvature="0"
           style="fill:#3f3f3f;stroke:none;stroke-width:2;stroke-linecap:round;stroke-linejoin:round;stroke-miterlimit:10" />
        <path
           id="path4249"
           d="M 51.2131,32.2426 39.8994,20.9289 c -0.3905,-0.3905 -0.3905,-1.0237 0,-1.4142 L 54.9999,4.4142 c 0.3906,-0.3906 1.0237,-0.3906 1.4143,0 l 11.3136,11.3136 c 0.3906,0.3906 0.3906,1.0237 0,1.4143 L 52.6273,32.2426 c -0.3905,0.3905 -1.0237,0.3905 -1.4142,0 z"
           stroke-miterlimit="10"
           inkscape:connector-curvature="0"
           style="fill:#3f3f3f;stroke:none;stroke-width:2;stroke-linecap:round;stroke-linejoin:round;stroke-miterlimit:10" />
        <path
           id="path4251"
           d="M 51.9203,39.1924 39.1924,51.9203 c -0.3905,0.3905 -1.0237,0.3905 -1.4142,0 L 23.636,37.7782 c -0.3905,-0.3905 -0.3905,-1.0237 0,-1.4142 L 36.364,23.636 c 0.3905,-0.3905 1.0237,-0.3905 1.4142,0 l 14.1421,14.1422 c 0.3905,0.3905 0.3905,1.0237 0,1.4142 z"
           stroke-miterlimit="10"
           inkscape:connector-curvature="0"
           style="fill:#d0cfce;stroke:none;stroke-width:2;stroke-linecap:round;stroke-linejoin:round;stroke-miterlimit:10" />
        <path
           id="path4253"
           d="M 36.364,23.636 23.636,36.364 c -0.3905,0.3905 -1.0237,0.3905 -1.4142,0 l -4.2426,-4.2427 c -0.3905,-0.3905 -0.3905,-1.0237 0,-1.4142 L 30.7071,17.9792 c 0.3905,-0.3905 1.0237,-0.3905 1.4142,0 l 4.2427,4.2426 c 0.3905,0.3905 0.3905,1.0237 0,1.4142 z"
           stroke-miterlimit="10"
           inkscape:connector-curvature="0"
           style="fill:#9b9b9a;stroke:none;stroke-width:2;stroke-linecap:round;stroke-linejoin:round;stroke-miterlimit:10" />
        <path
           id="path4255"
           d="m 53.3345,44.8492 -8.4853,8.4853 c -0.3905,0.3905 -1.0236,0.3905 -1.4142,0 l -2.1213,-2.1213 c -0.3905,-0.3905 -0.3905,-1.0237 0,-1.4142 l 8.4853,-8.4853 c 0.3905,-0.3905 1.0237,-0.3905 1.4142,0 l 2.1213,2.1213 c 0.3905,0.3906 0.3905,1.0237 0,1.4142 z"
           stroke-miterlimit="10"
           inkscape:connector-curvature="0"
           style="fill:#9b9b9a;stroke:none;stroke-width:2;stroke-linecap:round;stroke-linejoin:round;stroke-miterlimit:10" />
        <circle
           id="ellipse4257"
           stroke-miterlimit="10"
           transform="matrix(0.7071,-0.7071,0.7071,0.7071,-5.1041,12.3223)"
           cy="12.3223"
           cx="12.3223"
           r="2"
           style="fill:#3f3f3f;stroke:none;stroke-width:2;stroke-linecap:round;stroke-linejoin:round;stroke-miterlimit:10" />
      </g>
      <g
         id="hair-1" />
      <g
         id="skin-2" />
      <g
         id="skin-shadow-7" />
      <g
         id="line-0">
        <line
           id="line4263"
           stroke-miterlimit="10"
           y2="28.93"
           y1="26.5"
           x2="43.07"
           x1="45.5"
           style="fill:none;stroke:#000000;stroke-width:2;stroke-miterlimit:10" />
        <polyline
           id="polyline4265"
           points="28.93,43.07 26.52,45.49 26,46"
           stroke-miterlimit="10"
           style="fill:none;stroke:#000000;stroke-width:2;stroke-miterlimit:10" />
        <line
           id="line4267"
           stroke-miterlimit="10"
           y2="22"
           y1="14"
           x2="12"
           x1="12"
           style="fill:none;stroke:#000000;stroke-width:2;stroke-miterlimit:10" />
        <line
           id="line4269"
           stroke-miterlimit="10"
           y2="12"
           y1="12"
           x2="14"
           x1="23"
           style="fill:none;stroke:#000000;stroke-width:2;stroke-miterlimit:10" />
        <path
           id="path4271"
           d="m 24.2814,24.4049 c 3.6326,-3.6326 3.934,-9.4125 0.8702,-13.3997 -0.3699,-0.4815 -1.0826,-0.53 -1.512,-0.1007 L 11.0003,23.5439 c -0.4196,0.4196 -0.3828,1.1114 0.0737,1.4905 3.8646,3.2097 9.5665,3.0113 13.2074,-0.6295 z"
           stroke-miterlimit="10"
           inkscape:connector-curvature="0"
           style="fill:none;stroke:#000000;stroke-width:2;stroke-linecap:round;stroke-linejoin:round;stroke-miterlimit:10" />
        <path
           id="path4273"
           d="M 15.7278,67.7278 4.4142,56.4142 c -0.3906,-0.3906 -0.3906,-1.0237 0,-1.4143 L 19.5147,39.8994 c 0.3905,-0.3905 1.0236,-0.3905 1.4142,0 l 11.3137,11.3137 c 0.3905,0.3906 0.3905,1.0237 0,1.4142 L 17.1421,67.7278 c -0.3906,0.3906 -1.0237,0.3906 -1.4143,0 z"
           stroke-miterlimit="10"
           inkscape:connector-curvature="0"
           style="fill:none;stroke:#000000;stroke-width:2;stroke-linecap:round;stroke-linejoin:round;stroke-miterlimit:10" />
        <path
           id="path4275"
           d="M 51.2131,32.2426 39.8994,20.9289 c -0.3905,-0.3905 -0.3905,-1.0237 0,-1.4142 L 54.9999,4.4142 c 0.3906,-0.3906 1.0237,-0.3906 1.4143,0 l 11.3136,11.3136 c 0.3906,0.3906 0.3906,1.0237 0,1.4143 L 52.6273,32.2426 c -0.3905,0.3905 -1.0237,0.3905 -1.4142,0 z"
           stroke-miterlimit="10"
           inkscape:connector-curvature="0"
           style="fill:none;stroke:#000000;stroke-width:2;stroke-linecap:round;stroke-linejoin:round;stroke-miterlimit:10" />
        <path
           id="path4277"
           d="M 51.9203,39.1924 39.1924,51.9203 c -0.3905,0.3905 -1.0237,0.3905 -1.4142,0 L 23.636,37.7782 c -0.3905,-0.3905 -0.3905,-1.0237 0,-1.4142 L 36.364,23.636 c 0.3905,-0.3905 1.0237,-0.3905 1.4142,0 l 14.1421,14.1422 c 0.3905,0.3905 0.3905,1.0237 0,1.4142 z"
           stroke-miterlimit="10"
           inkscape:connector-curvature="0"
           style="fill:none;stroke:#000000;stroke-width:2;stroke-linecap:round;stroke-linejoin:round;stroke-miterlimit:10" />
        <path
           id="path4279"
           d="M 36.364,23.636 23.636,36.364 c -0.3905,0.3905 -1.0237,0.3905 -1.4142,0 l -4.2426,-4.2427 c -0.3905,-0.3905 -0.3905,-1.0237 0,-1.4142 L 30.7071,17.9792 c 0.3905,-0.3905 1.0237,-0.3905 1.4142,0 l 4.2427,4.2426 c 0.3905,0.3905 0.3905,1.0237 0,1.4142 z"
           stroke-miterlimit="10"
           inkscape:connector-curvature="0"
           style="fill:none;stroke:#000000;stroke-width:2;stroke-linecap:round;stroke-linejoin:round;stroke-miterlimit:10" />
        <path
           id="path4281"
           d="m 53.3345,44.8492 -8.4853,8.4853 c -0.3905,0.3905 -1.0236,0.3905 -1.4142,0 l -2.1213,-2.1213 c -0.3905,-0.3905 -0.3905,-1.0237 0,-1.4142 l 8.4853,-8.4853 c 0.3905,-0.3905 1.0237,-0.3905 1.4142,0 l 2.1213,2.1213 c 0.3905,0.3906 0.3905,1.0237 0,1.4142 z"
           stroke-miterlimit="10"
           inkscape:connector-curvature="0"
           style="fill:none;stroke:#000000;stroke-width:2;stroke-linecap:round;stroke-linejoin:round;stroke-miterlimit:10" />
        <circle
           id="ellipse4283"
           stroke-miterlimit="10"
           transform="matrix(0.7071,-0.7071,0.7071,0.7071,-5.1041,12.3223)"
           cy="12.3223"
           cx="12.3223"
           r="2"
           style="fill:none;stroke:#000000;stroke-width:2;stroke-linecap:round;stroke-linejoin:round;stroke-miterlimit:10" />
      </g>
    </g>
    <g
       id="hair-6"
       transform="matrix(0.26458333,0,0,0.26458333,81.283936,245.43052)" />
    <g
       id="skin-0"
       transform="matrix(0.26458333,0,0,0.26458333,81.283936,245.43052)" />
    <g
       id="skin-shadow-6"
       transform="matrix(0.26458333,0,0,0.26458333,81.283936,245.43052)" />
    <g
       id="g5370"
       transform="matrix(0.24233002,0,0,0.24233002,-16.381083,221.66862)">
      <polygon
         transform="matrix(0.22451071,-0.13999742,0.13999742,0.22451071,74.426965,252.64954)"
         style="fill:#d0cfce;stroke:#000000;stroke-width:1.51181102;stroke-miterlimit:4;stroke-dasharray:none;stroke-opacity:1"
         points="21.755,17.6799 21.755,54.6474 30.0625,54.2813 29.633,21.0195 25.1804,12.875 "
         id="polygon4446" />
      <polygon
         transform="matrix(-0.22451072,-0.13999742,-0.13999742,0.22451072,107.17231,252.64954)"
         style="fill:#d0cfce;stroke:#000000;stroke-width:1.51181102;stroke-miterlimit:4;stroke-dasharray:none;stroke-opacity:1"
         points="29.633,21.0195 25.1804,12.875 21.755,17.6799 21.755,54.6474 30.0625,54.2813 "
         id="polygon4446-6" />
      <path
         style="fill:#f4aa41;stroke-width:0.26458332"
         inkscape:connector-curvature="0"
         d="m 88.77556,260.6276 c 0,0 0.333402,-8.43973 0.267256,-10.55594 -0.0635,-2.01819 1.756833,-3.03356 1.756833,-3.03356 0,0 1.820333,1.01537 1.756833,3.03356 -0.06615,2.11621 0.267229,10.55594 0.267229,10.55594 z"
         id="path4448" />
      <path
         style="fill:#ffffff;stroke-width:0.26458332"
         inkscape:connector-curvature="0"
         d="m 91.73757,261.27102 4.259422,-0.33139 c 0.04897,-0.83992 -0.864765,-1.84097 -0.864765,-1.84097 -2.182812,-1.57081 -2.535607,-2.49238 -2.535607,-2.49238 l -0.903976,-2.42953"
         id="path4450" />
      <path
         style="fill:#ffffff;stroke-width:0.26458332"
         inkscape:connector-curvature="0"
         d="m 89.864347,261.26345 -4.243467,-0.32382 c -0.04897,-0.83992 0.864764,-1.84097 0.864764,-1.84097 2.182813,-1.57081 2.535608,-2.49238 2.535608,-2.49238 l 0.903976,-2.42953"
         id="path4452" />
      <path
         style="fill:#ffffff;stroke-width:0.26458332"
         inkscape:connector-curvature="0"
         d="m 91.87518,262.83428 c -0.0027,0.0176 -0.0027,0.0276 -0.0027,0.0276 h -2.145744 c 0,0 0,-0.01 -0.0027,-0.0302 -0.0132,-0.17844 -0.07141,-1.10585 0.140256,-1.56832 -0.0053,-1.7794 -0.01587,-7.67313 0.134937,-8.99766 0.174625,-1.5658 0.799016,-1.79702 0.799016,-1.79702 0,0 0.627062,0.23122 0.804359,1.79702 0.148167,1.32705 0.14023,7.23334 0.134911,9.00523 0.206402,0.46495 0.148194,1.38985 0.13761,1.56326 z"
         id="path4454" />
      <path
         style="fill:none;stroke:#000000;stroke-width:0.51575232;stroke-linecap:round;stroke-linejoin:round;stroke-miterlimit:10"
         inkscape:connector-curvature="0"
         stroke-miterlimit="10"
         d="m 92.684832,256.77051 c -0.08202,-2.51883 -0.166688,-5.54567 -0.129646,-6.69925 0.0635,-2.01877 -1.756833,-3.03213 -1.756833,-3.03213 0,0 -1.820334,1.01336 -1.756834,3.03213 0.03704,1.15887 -0.04762,4.20687 -0.129646,6.73364 0.08202,-0.12964 0.10848,-0.19843 0.10848,-0.19843 l 0.889,-2.3839 v -0.003 c 0.01852,-0.87842 0.04763,-1.59015 0.08996,-1.95528 0.174625,-1.56368 0.799042,-1.79652 0.799042,-1.79652 0,0 0.627062,0.23284 0.804333,1.79652 0.03969,0.35984 0.06879,1.05569 0.08996,1.91294 0.04762,1.99496 0.05027,4.87098 0.04498,6.45054"
         id="path4464" />
      <path
         style="fill:none;stroke:#000000;stroke-width:0.51575232;stroke-linecap:round;stroke-linejoin:round;stroke-miterlimit:10"
         inkscape:connector-curvature="0"
         stroke-miterlimit="10"
         d="m 91.913121,261.25594 4.083871,-0.31631 c 0.04897,-0.83992 -0.864765,-1.84097 -0.864765,-1.84097 -2.182812,-1.57081 -2.535607,-2.49238 -2.535607,-2.49238 l -0.903976,-2.42953"
         id="path4466" />
      <path
         style="fill:none;stroke:#000000;stroke-width:0.51575232;stroke-linecap:round;stroke-linejoin:round;stroke-miterlimit:10"
         inkscape:connector-curvature="0"
         stroke-miterlimit="10"
         d="m 89.864373,260.62813 c -0.0053,-1.56633 -0.0026,-4.41325 0.04498,-6.40556 l -0.889,2.3839 c 0,0 -0.02646,0.0688 -0.10848,0.19843 v 0.003"
         id="path4468" />
      <polyline
         transform="matrix(0.26458333,0,0,0.26458333,81.283936,245.43052)"
         style="fill:none;stroke:#000000;stroke-width:1.94930005;stroke-linecap:round;stroke-linejoin:round;stroke-miterlimit:10"
         stroke-miterlimit="10"
         points="32.66,33.0598 32.6,33.2198 32.6,33.2298"
         id="polyline4470" />
      <path
         style="fill:none;stroke:#000000;stroke-width:0.51575232;stroke-linecap:round;stroke-linejoin:round;stroke-miterlimit:10"
         inkscape:connector-curvature="0"
         stroke-miterlimit="10"
         d="m 88.911873,256.80755 c -0.193145,0.30692 -0.690562,0.95515 -1.87325,1.8759 -0.169333,0.13229 -0.354541,0.27252 -0.552979,0.41539 0,0 -0.912812,1.00013 -0.865187,1.8415 l 4.085166,0.31486"
         id="path4472" />
      <path
         style="fill:none;stroke:#000000;stroke-width:0.51575232;stroke-linecap:round;stroke-linejoin:round;stroke-miterlimit:10"
         inkscape:connector-curvature="0"
         stroke-miterlimit="10"
         d="m 91.875207,262.83476 c -0.0026,0.0159 -0.0026,0.0265 -0.0026,0.0265 H 89.72679 c 0,0 0,-0.0106 -0.0026,-0.0291 -0.01323,-0.17991 -0.07144,-1.10596 0.140229,-1.56898 v -0.635 c -0.0053,-1.56633 -0.0026,-4.41325 0.04498,-6.40556 v -0.003 c 0.01852,-0.87841 0.04765,-1.59014 0.08996,-1.95527 0.174625,-1.56369 0.799042,-1.79652 0.799042,-1.79652 0,0 0.627062,0.23283 0.804333,1.79652 0.03969,0.35983 0.06879,1.05569 0.08996,1.91294 0.04762,1.99496 0.05027,4.87098 0.04498,6.45054 v 0.64294 c 0.206348,0.46564 0.14814,1.38903 0.137557,1.56366 z"
         id="path4474" />
    </g>
    <g
       id="g5706"
       transform="matrix(0.24665413,0,0,0.24665413,9.0895836,223.67904)">
      <g
         transform="matrix(0.26458333,0,0,0.26458333,-23.581884,256.97668)"
         id="g5672">
        <g
           id="color-0">
          <path
             style="fill:#fcea2b;stroke:none"
             inkscape:connector-curvature="0"
             d="m 11,37 c 0,1.1045 50,2.1045 50,1 V 31 H 60 V 20 c 0,-2.7612 -2.2393,-5 -5,-5 H 17 c -2.7607,0 -5,2.2388 -5,5 v 11 h -1 z"
             id="path5616" />
          <path
             style="fill:#ffffff;stroke:none"
             inkscape:connector-curvature="0"
             d="m 12,21.9238 c 1.9443,-1.3081 4.6025,-1.1064 6.3213,0.6123 1.9531,1.9522 5.1191,1.9522 7.0723,0 1.9521,-1.9521 5.1181,-1.9521 7.0703,0 1.9531,1.9522 5.1191,1.9522 7.0722,0 1.9522,-1.9521 5.1182,-1.9521 7.0703,0 1.9532,1.9522 5.1192,1.9522 7.0723,0 1.7188,-1.7187 4.377,-1.9204 6.3213,-0.6123 V 20 c 0,-2.7612 -2.2393,-5 -5,-5 H 17 c -2.7607,0 -5,2.2388 -5,5 z"
             id="path5618" />
          <path
             style="fill:#fcea2b;stroke:none"
             inkscape:connector-curvature="0"
             d="m 5,60 c 0,1.1045 0.8955,2 2,2 h 58 c 1.1045,0 2,-0.8955 2,-2 V 41 c 0,-2.7617 -2.2393,-5 -5,-5 H 10 c -2.7607,0 -5,2.2383 -5,5 z"
             id="path5620" />
          <circle
             style="fill:#ea5a47;stroke:none"
             cx="36"
             cy="12"
             r="3"
             id="circle5622" />
          <path
             style="fill:#ffffff;stroke:none;stroke-width:2;stroke-linecap:round;stroke-linejoin:round;stroke-miterlimit:10"
             inkscape:connector-curvature="0"
             stroke-miterlimit="10"
             d="m 11.251,45.5361 c 1.9521,1.9522 5.1181,1.9522 7.0703,0 1.9531,-1.9521 5.1191,-1.9521 7.0723,0 1.9521,1.9522 5.1181,1.9522 7.0703,0 1.9531,-1.9521 5.1191,-1.9521 7.0722,0 1.9522,1.9522 5.1182,1.9522 7.0703,0 1.9532,-1.9521 5.1192,-1.9521 7.0723,0 1.9522,1.9522 5.1182,1.9522 7.0703,0 1.6992,-1.6982 4.3135,-1.915 6.251,-0.6591 V 41 c 0,-2.7617 -2.2393,-5 -5,-5 H 10 c -2.7607,0 -5,2.2383 -5,5 v 3.877 c 1.9375,-1.2559 4.5518,-1.0391 6.251,0.6591 z"
             id="path5624" />
        </g>
        <g
           id="hair-2" />
        <g
           id="skin-37" />
        <g
           id="skin-shadow-59" />
        <g
           id="line-22">
          <circle
             style="fill:none;stroke:#000000;stroke-width:2;stroke-linecap:round;stroke-linejoin:round;stroke-miterlimit:10"
             cx="36"
             cy="12"
             r="3"
             stroke-miterlimit="10"
             id="circle5630" />
          <path
             style="fill:none;stroke:#000000;stroke-width:2;stroke-linecap:round;stroke-linejoin:round;stroke-miterlimit:10"
             inkscape:connector-curvature="0"
             stroke-miterlimit="10"
             d="m 36,10.75 c 0,-2.7617 2.2383,-5 5,-5"
             id="path5632" />
          <path
             style="fill:none;stroke:#000000;stroke-width:2;stroke-linecap:round;stroke-linejoin:round;stroke-miterlimit:10"
             inkscape:connector-curvature="0"
             stroke-miterlimit="10"
             d="m 11.251,45.5361 c 1.9521,1.9522 5.1181,1.9522 7.0703,0 1.9531,-1.9521 5.1191,-1.9521 7.0723,0 1.9521,1.9522 5.1181,1.9522 7.0703,0 1.9531,-1.9521 5.1191,-1.9521 7.0722,0 1.9522,1.9522 5.1182,1.9522 7.0703,0 1.9532,-1.9521 5.1192,-1.9521 7.0723,0 1.9522,1.9522 5.1182,1.9522 7.0703,0 1.6992,-1.6982 4.3135,-1.915 6.251,-0.6591 V 41 c 0,-2.7617 -2.2393,-5 -5,-5 H 10 c -2.7607,0 -5,2.2383 -5,5 v 3.877 c 1.9375,-1.2559 4.5518,-1.0391 6.251,0.6591 z"
             id="path5634" />
          <path
             style="fill:none;stroke:#000000;stroke-width:2;stroke-linecap:round;stroke-linejoin:round;stroke-miterlimit:10"
             inkscape:connector-curvature="0"
             stroke-miterlimit="10"
             d="M 5,44.877 V 60 c 0,1.1045 0.8955,2 2,2 h 58 c 1.1045,0 2,-0.8955 2,-2 V 44.877"
             id="path5636" />
          <path
             style="fill:none;stroke:#000000;stroke-width:2;stroke-linecap:round;stroke-linejoin:round;stroke-miterlimit:10"
             inkscape:connector-curvature="0"
             stroke-miterlimit="10"
             d="m 11.251,45.5361 c 1.9521,1.9522 5.1181,1.9522 7.0703,0 1.9531,-1.9521 5.1191,-1.9521 7.0723,0 1.9521,1.9522 5.1181,1.9522 7.0703,0 1.9531,-1.9521 5.1191,-1.9521 7.0722,0 1.9522,1.9522 5.1182,1.9522 7.0703,0 1.9532,-1.9521 5.1192,-1.9521 7.0723,0 1.9522,1.9522 5.1182,1.9522 7.0703,0 1.6992,-1.6982 4.3135,-1.915 6.251,-0.6591 V 41 c 0,-2.7617 -2.2393,-5 -5,-5 H 10 c -2.7607,0 -5,2.2383 -5,5 v 3.877 c 1.9375,-1.2559 4.5518,-1.0391 6.251,0.6591 z"
             id="path5638" />
          <line
             style="fill:none;stroke:#000000;stroke-width:2;stroke-linecap:round;stroke-linejoin:round;stroke-miterlimit:10"
             x1="60"
             x2="60"
             y1="21.9238"
             y2="32"
             stroke-miterlimit="10"
             id="line5640" />
          <line
             style="fill:none;stroke:#000000;stroke-width:2;stroke-linecap:round;stroke-linejoin:round;stroke-miterlimit:10"
             x1="12"
             x2="12"
             y1="21.9238"
             y2="32"
             stroke-miterlimit="10"
             id="line5642" />
          <path
             style="fill:none;stroke:#000000;stroke-width:2;stroke-linecap:round;stroke-linejoin:round;stroke-miterlimit:10"
             inkscape:connector-curvature="0"
             stroke-miterlimit="10"
             d="m 12,21.9238 c 1.9443,-1.3081 4.6025,-1.1064 6.3213,0.6123 1.9531,1.9522 5.1191,1.9522 7.0723,0 1.9521,-1.9521 5.1181,-1.9521 7.0703,0 1.9531,1.9522 5.1191,1.9522 7.0722,0 1.9522,-1.9521 5.1182,-1.9521 7.0703,0 1.9532,1.9522 5.1192,1.9522 7.0723,0 1.7188,-1.7187 4.377,-1.9204 6.3213,-0.6123 V 20 c 0,-2.7612 -2.2393,-5 -5,-5 H 17 c -2.7607,0 -5,2.2388 -5,5 z"
             id="path5644" />
        </g>
      </g>
      <g
         transform="matrix(0.16203236,0,0,0.12691133,-19.663861,252.80726)"
         id="g5538">
        <g
           id="color-1">
          <polygon
             style="fill:#ffffff;stroke:none"
             points="41.6698,32.6577 28.7763,32.5963 28.7763,63.6037 41.282,63.6037 "
             id="polygon5500" />
          <polygon
             style="fill:#d0cfce;stroke:none"
             points="37.3427,63.6037 41.6698,63.6037 41.6698,32.5477 37.3427,32.5289 "
             id="polygon5502" />
          <path
             style="fill:#fcea2b;stroke:none"
             inkscape:connector-curvature="0"
             d="m 30.1387,15.9997 c 0,1.9786 -0.0131,4.8604 0.4283,6.3199 0.1599,0.5277 1.1604,2.2097 0.6331,2.3708 h 5.8481 2.7099 c -0.0363,-0.0092 -0.1364,0.0063 -0.1087,-0.02 0.8117,-0.7725 0.8117,-0.7725 1.007,-1.2891 0.584,-1.5449 0.5181,-4.3205 0.1158,-6.5612 -0.5205,-2.8999 -3.9503,-7.1748 -5.1651,-8.5166 -1.4073,1.4751 -5.4684,4.664 -5.4684,7.6962 z"
             id="path5504" />
          <line
             style="fill:#ffffff;stroke:none;stroke-width:2;stroke-linecap:round;stroke-linejoin:round;stroke-miterlimit:10"
             x1="35.372101"
             x2="35.372101"
             y1="23.7349"
             y2="27.775801"
             stroke-miterlimit="10"
             id="line5506" />
        </g>
        <g
           id="hair-8" />
        <g
           id="skin-7" />
        <g
           id="skin-shadow-9" />
        <g
           id="line-2">
          <path
             style="fill:none;stroke:#000000;stroke-width:2;stroke-linecap:round;stroke-linejoin:round;stroke-miterlimit:10"
             inkscape:connector-curvature="0"
             stroke-miterlimit="10"
             d="m 30.9079,23.735 c -0.4263,-1.4112 -0.7692,-3.6894 -0.7692,-5.9495 0,-4.4164 5.4684,-9.482 5.4684,-9.482 0,0 4.4065,4.2924 5.1651,8.5166 0.4329,2.4099 -0.1251,5.209 -0.769,6.9149"
             id="path5512" />
          <polygon
             style="fill:none;stroke:#000000;stroke-width:2;stroke-linecap:round;stroke-linejoin:round;stroke-miterlimit:10"
             stroke-miterlimit="10"
             points="28.7763,63.6037 41.6698,63.6037 41.6698,32.5963 28.7763,32.5289 "
             id="polygon5514" />
          <line
             style="fill:none;stroke:#000000;stroke-width:2;stroke-linecap:round;stroke-linejoin:round;stroke-miterlimit:10"
             x1="35.372101"
             x2="35.372101"
             y1="23.7349"
             y2="27.775801"
             stroke-miterlimit="10"
             id="line5516" />
        </g>
      </g>
    </g>
    <g
       id="g5800"
       transform="matrix(-0.06746897,0,0,-0.06746897,8.0564752,270.0658)">
      <g
         id="color-8">
        <path
           id="path5768"
           d="m 51.3344,58.3018 c 7.563,-9.7894 4.0318,-21.8721 2.4461,-25.5688 -0.1799,-0.4193 -0.9302,-0.5566 -0.982,-0.1006 -0.1225,1.0797 -0.4061,2.3611 -2.0041,1.9736 C 49.9741,34.4071 49.4465,34.05 49.4465,32.7258 49.9575,17.6764 38.9356,7.429 35.1002,4.1902 34.5899,3.7593 33.8334,4.2195 33.9415,4.8941 c 2.456,15.3348 -1.6079,14.2846 -3.0986,13.8192 -0.2593,-0.081 -0.5408,0.0546 -0.6603,0.3074 -4.5882,9.7014 -3.4112,14.2653 -3.519,17.4455 0,0.2569 0,0.687 0,0.9581 0,1.746 -1.4154,2.5822 -2.5607,2.0714 -2.0545,-0.9163 -2.4047,-6.3729 -2.4134,-7.8235 -0.0041,-0.6828 -0.8094,-0.8791 -1.202,-0.332 -8.8048,12.267 -2.3251,23.1974 -0.0822,26.3171 0.6459,0.8984 0.9025,2.0748 0.5354,3.1298 -0.0412,0.1183 -0.0896,0.2352 -0.1465,0.349 -0.3988,0.7981 0.6707,1.4 0.6707,1.4 1.3155,1.2339 5.4651,5.1806 14.2817,5.1805 7.1344,-1e-4 11.9478,-3.0595 13.8297,-4.7247 0.8829,-0.7812 1.2761,-0.8594 1.2732,-1.6827 -0.0036,-0.9849 -0.0257,-2.5026 0.4849,-3.0074"
           inkscape:connector-curvature="0"
           style="fill:#fcea2b;stroke:none" />
        <path
           id="path5770"
           d="m 36.2938,32.5579 c -0.2946,1.4609 -1.3196,4.0019 -4.2072,8.3499 -0.0592,0.1064 -0.1172,0.2104 -0.1764,0.3168 -0.3088,0.6893 -1.3555,3.3414 -1.0617,7.0514 0,10e-5 0,0 0,10e-5 -2e-4,0.0018 -0.573,4.337 -2.977,3.9757 -0.5095,-0.0766 -0.9214,-0.2506 -1.2541,-0.4772 -0.6105,-0.4159 -1.4234,0.1082 -1.3489,0.8525 0.3195,3.1924 1.6034,8.0822 6.1526,11.6721 0,0 1.2832,1.0598 1.4415,1.9748 0.0052,0.0303 0.029,0.0506 0.0591,0.0506 h 5.2741 c 0.1832,0 0.2083,-0.024 0.2135,-0.0594 0.0356,-0.2402 0.3643,-1.2504 3.2024,-3.7732 1.9966,-1.7748 3.1652,-3.898 3.7424,-5.3482 0.2048,-0.5145 -0.101,-1.1173 -0.6389,-1.2068 -0.3438,-0.0572 -0.7127,-0.3603 -1.0133,-1.1841 -3e-4,-10e-4 -3e-4,-9e-4 -7e-4,-0.0019 -0.0063,-0.0235 -0.2167,-0.8383 0.6013,-2.5595 0.3805,-0.8006 0.4242,-1.6645 0.36,-2.3655 -0.0579,-0.6322 -0.7233,-0.998 -1.2816,-0.7156 -0.7839,0.3965 -1.8694,0.5304 -2.5993,-1.0753 0,0 -0.6584,-1.5662 -0.0859,-5.4515 0.437,-2.9656 -1.0106,-7.8615 -2.8279,-10.3747 -0.4486,-0.6202 -1.4219,-0.4057 -1.574,0.349 z"
           inkscape:connector-curvature="0"
           style="fill:#f1b31c;stroke:none" />
      </g>
      <g
         id="hair-9" />
      <g
         id="skin-73" />
      <g
         id="skin-shadow-61" />
      <g
         id="line-29">
        <path
           id="path5776"
           d="m 21.6298,61.5562 c 3.479,3.6108 8.6702,5.4754 13.9925,5.4754 5.0546,0 10.7077,-1.9624 14.2409,-5.4677"
           stroke-miterlimit="10"
           inkscape:connector-curvature="0"
           style="fill:none;stroke:#000000;stroke-width:2;stroke-linecap:round;stroke-linejoin:round;stroke-miterlimit:10" />
        <path
           id="path5778"
           d="m 21.5108,57.4557 c 0,0 -10.5321,-11.2011 -0.4546,-25.9791 0,0 0.1969,4.0589 1.2551,6.5816 0.4834,1.0362 1.2122,1.9569 2.3487,1.9569 1.3355,0 2.4181,-0.8972 2.4181,-2.5708 0,-0.2599 0,-0.6721 0,-0.9184 0.105,-3.0996 -0.5251,-7.6659 3.5708,-17.19 0,0 7.0365,3.7835 3.9909,-14.6122 0,0 14.8798,10.4421 14.2762,28.217 0,1.2693 0.9678,2.2983 2.1617,2.2983 1.1939,0 2.1617,-1.029 2.1617,-2.2983 0.075,0.1341 6.3219,13.078 -2.514,24.515"
           stroke-miterlimit="10"
           inkscape:connector-curvature="0"
           style="fill:none;stroke:#000000;stroke-width:2;stroke-linecap:round;stroke-linejoin:round;stroke-miterlimit:10" />
        <path
           id="path5780"
           d="m 22.8203,22.9729 c 0.198,-1.0358 0.7082,-2.2802 1.9228,-3.3185 0,0 1.9021,-1.6355 1.5953,-3.8305"
           stroke-miterlimit="10"
           inkscape:connector-curvature="0"
           style="fill:none;stroke:#000000;stroke-width:2;stroke-linecap:round;stroke-linejoin:round;stroke-miterlimit:10" />
      </g>
    </g>
    <text
       xml:space="preserve"
       style="font-style:normal;font-weight:normal;font-size:4.23333311px;line-height:1.25;font-family:sans-serif;letter-spacing:0px;word-spacing:0px;fill:#000000;fill-opacity:1;stroke:none;stroke-width:0.26458332"
       x="37.417732"
       y="264.79404"
       id="text6133"><tspan
         sodipodi:role="line"
         id="tspan6131"
         x="37.417732"
         y="268.53955"
         style="stroke-width:0.26458332"></tspan><tspan
         sodipodi:role="line"
         x="37.417732"
         y="273.83121"
         style="stroke-width:0.26458332"
         id="tspan6135" /><tspan
         sodipodi:role="line"
         x="37.417732"
         y="279.12286"
         style="stroke-width:0.26458332"
         id="tspan6137" /><tspan
         sodipodi:role="line"
         x="37.417732"
         y="284.41455"
         style="stroke-width:0.26458332"
         id="tspan6139" /></text>
    <image
       sodipodi:absref="/home/abarth/Doc/Kinder/Space shuttle/Space-Shuttle-Launch-Photo-courtesy-of-NASA.png"
       y="214.02031"
       x="1.8994365"
       id="image6840"
       xlink:href="file:///home/abarth/Doc/Kinder/Space%20shuttle/Space-Shuttle-Launch-Photo-courtesy-of-NASA.png"
       preserveAspectRatio="none"
       height="43.850636"
       width="61.184937" />
  </g>
</svg>
